<svg xmlns="http://www.w3.org/2000/svg" viewBox="0 0 64 64" fill="none">
  <!-- Simplified Czech lion silhouette in institutional blue -->
  <rect width="64" height="64" rx="8" fill="#3C71AC"/>
  <g transform="translate(8,6) scale(0.75)" fill="#FFFFFF">
    <!-- Lion body -->
    <path d="M32 8c-3 0-5 1-7 3-1.5 1.5-2.5 3-3 5-.5 2-.5 4 0 6l-4 3c-2 1.5-3 3-3 5 0 1.5.5 3 1.5 4.5L18 36c-1 1-1.5 2-1.5 3.5 0 1 .5 2 1 3l-3 4c-1 1.5-1.5 3-1 4.5.5 2 2 3 4 3.5h3l2-2 1.5 1.5h4l1-2h7l1 2h4l1.5-1.5 2 2h3c2-.5 3.5-1.5 4-3.5.5-1.5 0-3-1-4.5l-3-4c.5-1 1-2 1-3 0-1.5-.5-2.5-1.5-3.5l1.5-1.5c1-1.5 1.5-3 1.5-4.5 0-2-1-3.5-3-5l-4-3c.5-2 .5-4 0-6-.5-2-1.5-3.5-3-5-2-2-4-3-7-3z"/>
    <!-- Crown -->
    <path d="M24 6l2-4h2l1 3h2l1-3h2l1 3h2l1-3h2l2 4v3H24V6z" fill="#ffd54f"/>
    <!-- Tongue -->
    <path d="M30 28c0 0 1 4 2 4s2-4 2-4" stroke="#ef5350" stroke-width="1.5" fill="none" stroke-linecap="round"/>
  </g>
</svg>
